ffmpeg started on 2025-05-12 at 14:42:15
Report written to "D:\Convert\FFMetrics\reports\psnr_report-6.txt"
Log level: 32
Command line:
ffmpeg -hide_banner -nostdin -i "G:\\\xc0\xed\xe8\xec\xe5\\\xce\xed\xe3\xee\xe8\xed\xe3\xe8\\!_35_\xcb\xe5\xf2\xee_2024\\DreamCast\\\xc4\xe8\xf1\xea\xe2\xe0\xeb\xe8\xf4\xe8\xf6\xe8\xf0\xee\xe2\xe0\xed \xef\xee \xe6\xe8\xe7\xed\xe8\\[DC] Isekai Shikkaku - 05_Telegram_HEVC.mkv" -i "G:\\\xc0\xed\xe8\xec\xe5\\\xce\xed\xe3\xee\xe8\xed\xe3\xe8\\!_35_\xcb\xe5\xf2\xee_2024\\DreamCast\\\xc4\xe8\xf1\xea\xe2\xe0\xeb\xe8\xf4\xe8\xf6\xe8\xf0\xee\xe2\xe0\xed \xef\xee \xe6\xe8\xe7\xed\xe8\\[DC] Isekai Shikkaku - 05_Telegram.mp4" -lavfi "[0:v]settb=AVTB,setpts=PTS-STARTPTS,format=pix_fmts=yuv420p10,fps=24000/1001,scale=1920:1080:flags=bicubic[main];[1:v]settb=AVTB,setpts=PTS-STARTPTS,format=pix_fmts=yuv420p,fps=24000/1001,scale=1920:1080:flags=bicubic[ref];[main][ref]psnr=eof_action=endall:stats_file='D\\:/Convert/FFMetrics/logs/psnr_logfile-6.txt'" -f null -
Input #0, matroska,webm, from 'G:\Аниме\Онгоинги\!_35_Лето_2024\DreamCast\Дисквалифицирован по жизни\[DC] Isekai Shikkaku - 05_Telegram_HEVC.mkv':
  Metadata:
    COMPATIBLE_BRANDS: isomiso2avc1mp41
    MAJOR_BRAND     : isom
    MINOR_VERSION   : 512
    ENCODER         : Lavf61.7.100
  Duration: 00:23:46.65, start: -0.021000, bitrate: 1012 kb/s
  Stream #0:0: Video: hevc (Main 10), yuv420p10le(tv, bt709, progressive), 1920x1080 [SAR 1:1 DAR 16:9], 23.98 fps, 23.98 tbr, 1k tbn (default)
      Metadata:
        HANDLER_NAME    : VideoHandler
        VENDOR_ID       : [0][0][0][0]
        ENCODER         : Lavc61.19.100 libx265
        BPS             : 816047
        DURATION        : 00:23:46.549708333
        NUMBER_OF_FRAMES: 34203
        NUMBER_OF_BYTES : 145516452
        _STATISTICS_WRITING_APP: mkvpropedit v66.0.0 ('Josie') 64-bit
        _STATISTICS_WRITING_DATE_UTC: 2025-05-07 10:42:04
        _STATISTICS_TAGS: BPS DURATION NUMBER_OF_FRAMES NUMBER_OF_BYTES
  Stream #0:1: Audio: aac (LC), 48000 Hz, stereo, fltp (default)
      Metadata:
        HANDLER_NAME    : SoundHandler
        VENDOR_ID       : [0][0][0][0]
        ENCODER         : Lavc61.19.100 aac
        BPS             : 192739
        DURATION        : 00:23:46.645000000
        NUMBER_OF_FRAMES: 66875
        NUMBER_OF_BYTES : 34371292
        _STATISTICS_WRITING_APP: mkvpropedit v66.0.0 ('Josie') 64-bit
        _STATISTICS_WRITING_DATE_UTC: 2025-05-07 10:42:04
        _STATISTICS_TAGS: BPS DURATION NUMBER_OF_FRAMES NUMBER_OF_BYTES
Input #1, mov,mp4,m4a,3gp,3g2,mj2, from 'G:\Аниме\Онгоинги\!_35_Лето_2024\DreamCast\Дисквалифицирован по жизни\[DC] Isekai Shikkaku - 05_Telegram.mp4':
  Metadata:
    major_brand     : isom
    minor_version   : 512
    compatible_brands: isomiso2avc1mp41
    encoder         : Lavf61.1.100
  Duration: 00:23:46.62, start: 0.000000, bitrate: 3746 kb/s
  Stream #1:0[0x1](und): Video: h264 (High) (avc1 / 0x31637661), yuv420p(tv, bt709, progressive), 1920x1080 [SAR 1:1 DAR 16:9], 3598 kb/s, 23.98 fps, 23.98 tbr, 24k tbn (default)
      Metadata:
        handler_name    : VideoHandler
        vendor_id       : [0][0][0][0]
        encoder         : Lavc61.3.100 h264_qsv
  Stream #1:1[0x2](und): Audio: aac (HE-AACv2) (mp4a / 0x6134706D), 48000 Hz, stereo, fltp, 144 kb/s (default)
      Metadata:
        handler_name    : SoundHandler
        vendor_id       : [0][0][0][0]
Stream mapping:
  Stream #0:0 (hevc) -> settb:default
  Stream #1:0 (h264) -> settb:default
  psnr:default -> Stream #0:0 (wrapped_avframe)
  Stream #0:1 -> #0:1 (aac (native) -> pcm_s16le (native))
Output #0, null, to 'pipe:':
  Metadata:
    COMPATIBLE_BRANDS: isomiso2avc1mp41
    MAJOR_BRAND     : isom
    MINOR_VERSION   : 512
    encoder         : Lavf61.7.100
  Stream #0:0: Video: wrapped_avframe, yuv420p10le(tv, bt709, progressive), 1920x1080 [SAR 1:1 DAR 16:9], q=2-31, 200 kb/s, 23.98 fps, 23.98 tbn
      Metadata:
        encoder         : Lavc61.19.100 wrapped_avframe
  Stream #0:1: Audio: pcm_s16le, 48000 Hz, stereo, s16, 1536 kb/s (default)
      Metadata:
        HANDLER_NAME    : SoundHandler
        VENDOR_ID       : [0][0][0][0]
        _STATISTICS_TAGS: BPS DURATION NUMBER_OF_FRAMES NUMBER_OF_BYTES
        BPS             : 192739
        DURATION        : 00:23:46.645000000
        NUMBER_OF_FRAMES: 66875
        NUMBER_OF_BYTES : 34371292
        _STATISTICS_WRITING_APP: mkvpropedit v66.0.0 ('Josie') 64-bit
        _STATISTICS_WRITING_DATE_UTC: 2025-05-07 10:42:04
        encoder         : Lavc61.19.100 pcm_s16le
frame=  171 fps=0.0 q=-0.0 size=N/A time=00:00:07.13 bitrate=N/A speed=13.9x    frame=  380 fps=372 q=-0.0 size=N/A time=00:00:15.84 bitrate=N/A speed=15.5x    frame=  589 fps=381 q=-0.0 size=N/A time=00:00:24.56 bitrate=N/A speed=15.9x    frame=  811 fps=395 q=-0.0 size=N/A time=00:00:33.82 bitrate=N/A speed=16.5x    frame= 1078 fps=419 q=-0.0 size=N/A time=00:00:44.96 bitrate=N/A speed=17.5x    frame= 1347 fps=435 q=-0.0 size=N/A time=00:00:56.18 bitrate=N/A speed=18.1x    frame= 1597 fps=443 q=-0.0 size=N/A time=00:01:06.60 bitrate=N/A speed=18.5x    frame= 1836 fps=445 q=-0.0 size=N/A time=00:01:16.57 bitrate=N/A speed=18.6x    frame= 2068 fps=446 q=-0.0 size=N/A time=00:01:26.25 bitrate=N/A speed=18.6x    frame= 2282 fps=443 q=-0.0 size=N/A time=00:01:35.17 bitrate=N/A speed=18.5x    frame= 2524 fps=446 q=-0.0 size=N/A time=00:01:45.27 bitrate=N/A speed=18.6x    frame= 2714 fps=439 q=-0.0 size=N/A time=00:01:53.19 bitrate=N/A speed=18.3x    frame= 2912 fps=435 q=-0.0 size=N/A time=00:02:01.45 bitrate=N/A speed=18.1x    frame= 3103 fps=430 q=-0.0 size=N/A time=00:02:09.42 bitrate=N/A speed=17.9x    frame= 3279 fps=424 q=-0.0 size=N/A time=00:02:16.76 bitrate=N/A speed=17.7x    frame= 3501 fps=425 q=-0.0 size=N/A time=00:02:26.02 bitrate=N/A speed=17.7x    frame= 3686 fps=421 q=-0.0 size=N/A time=00:02:33.73 bitrate=N/A speed=17.5x    frame= 3859 fps=416 q=-0.0 size=N/A time=00:02:40.95 bitrate=N/A speed=17.4x    frame= 4083 fps=417 q=-0.0 size=N/A time=00:02:50.29 bitrate=N/A speed=17.4x    frame= 4319 fps=419 q=-0.0 size=N/A time=00:03:00.13 bitrate=N/A speed=17.5x    frame= 4538 fps=419 q=-0.0 size=N/A time=00:03:09.27 bitrate=N/A speed=17.5x    frame= 4802 fps=423 q=-0.0 size=N/A time=00:03:20.28 bitrate=N/A speed=17.7x    frame= 5049 fps=426 q=-0.0 size=N/A time=00:03:30.58 bitrate=N/A speed=17.8x    frame= 5294 fps=428 q=-0.0 size=N/A time=00:03:40.80 bitrate=N/A speed=17.8x    frame= 5525 fps=429 q=-0.0 size=N/A time=00:03:50.43 bitrate=N/A speed=17.9x    frame= 5765 fps=430 q=-0.0 size=N/A time=00:04:00.44 bitrate=N/A speed=17.9x    frame= 6029 fps=433 q=-0.0 size=N/A time=00:04:11.45 bitrate=N/A speed=18.1x    frame= 6262 fps=434 q=-0.0 size=N/A time=00:04:21.17 bitrate=N/A speed=18.1x    frame= 6529 fps=437 q=-0.0 size=N/A time=00:04:32.31 bitrate=N/A speed=18.2x    frame= 6765 fps=437 q=-0.0 size=N/A time=00:04:42.15 bitrate=N/A speed=18.2x    frame= 7029 fps=440 q=-0.0 size=N/A time=00:04:53.16 bitrate=N/A speed=18.4x    frame= 7269 fps=441 q=-0.0 size=N/A time=00:05:03.17 bitrate=N/A speed=18.4x    frame= 7505 fps=441 q=-0.0 size=N/A time=00:05:13.02 bitrate=N/A speed=18.4x    frame= 7760 fps=443 q=-0.0 size=N/A time=00:05:23.65 bitrate=N/A speed=18.5x    frame= 7990 fps=443 q=-0.0 size=N/A time=00:05:33.24 bitrate=N/A speed=18.5x    frame= 8246 fps=444 q=-0.0 size=N/A time=00:05:43.92 bitrate=N/A speed=18.5x    frame= 8487 fps=445 q=-0.0 size=N/A time=00:05:53.97 bitrate=N/A speed=18.6x    frame= 8759 fps=447 q=-0.0 size=N/A time=00:06:05.32 bitrate=N/A speed=18.7x    frame= 9030 fps=449 q=-0.0 size=N/A time=00:06:16.62 bitrate=N/A speed=18.7x    frame= 9262 fps=449 q=-0.0 size=N/A time=00:06:26.30 bitrate=N/A speed=18.7x    frame= 9513 fps=450 q=-0.0 size=N/A time=00:06:36.77 bitrate=N/A speed=18.8x    frame= 9785 fps=452 q=-0.0 size=N/A time=00:06:48.11 bitrate=N/A speed=18.8x    frame=10010 fps=451 q=-0.0 size=N/A time=00:06:57.50 bitrate=N/A speed=18.8x    frame=10236 fps=451 q=-0.0 size=N/A time=00:07:06.92 bitrate=N/A speed=18.8x    frame=10506 fps=453 q=-0.0 size=N/A time=00:07:18.18 bitrate=N/A speed=18.9x    frame=10747 fps=453 q=-0.0 size=N/A time=00:07:28.23 bitrate=N/A speed=18.9x    frame=10993 fps=454 q=-0.0 size=N/A time=00:07:38.49 bitrate=N/A speed=18.9x    frame=11225 fps=454 q=-0.0 size=N/A time=00:07:48.17 bitrate=N/A speed=18.9x    frame=11488 fps=455 q=-0.0 size=N/A time=00:07:59.14 bitrate=N/A speed=  19x    frame=11763 fps=456 q=-0.0 size=N/A time=00:08:10.61 bitrate=N/A speed=  19x    frame=11989 fps=456 q=-0.0 size=N/A time=00:08:20.04 bitrate=N/A speed=  19x    frame=12232 fps=456 q=-0.0 size=N/A time=00:08:30.17 bitrate=N/A speed=  19x    frame=12438 fps=455 q=-0.0 size=N/A time=00:08:38.76 bitrate=N/A speed=  19x    frame=12707 fps=456 q=-0.0 size=N/A time=00:08:49.98 bitrate=N/A speed=  19x    frame=12928 fps=456 q=-0.0 size=N/A time=00:08:59.20 bitrate=N/A speed=  19x    frame=13182 fps=457 q=-0.0 size=N/A time=00:09:09.79 bitrate=N/A speed=  19x    frame=13431 fps=457 q=-0.0 size=N/A time=00:09:20.18 bitrate=N/A speed=19.1x    frame=13678 fps=457 q=-0.0 size=N/A time=00:09:30.48 bitrate=N/A speed=19.1x    frame=13936 fps=458 q=-0.0 size=N/A time=00:09:41.24 bitrate=N/A speed=19.1x    frame=14203 fps=459 q=-0.0 size=N/A time=00:09:52.38 bitrate=N/A speed=19.2x    frame=14464 fps=460 q=-0.0 size=N/A time=00:10:03.26 bitrate=N/A speed=19.2x    frame=14714 fps=460 q=-0.0 size=N/A time=00:10:13.69 bitrate=N/A speed=19.2x    frame=14963 fps=461 q=-0.0 size=N/A time=00:10:24.08 bitrate=N/A speed=19.2x    frame=15236 fps=462 q=-0.0 size=N/A time=00:10:35.46 bitrate=N/A speed=19.3x    frame=15497 fps=463 q=-0.0 size=N/A time=00:10:46.35 bitrate=N/A speed=19.3x    frame=15708 fps=462 q=-0.0 size=N/A time=00:10:55.15 bitrate=N/A speed=19.3x    frame=15869 fps=459 q=-0.0 size=N/A time=00:11:01.86 bitrate=N/A speed=19.2x    frame=16112 fps=460 q=-0.0 size=N/A time=00:11:12.00 bitrate=N/A speed=19.2x    frame=16376 fps=460 q=-0.0 size=N/A time=00:11:23.01 bitrate=N/A speed=19.2x    frame=16648 fps=461 q=-0.0 size=N/A time=00:11:34.36 bitrate=N/A speed=19.2x    frame=16886 fps=461 q=-0.0 size=N/A time=00:11:44.28 bitrate=N/A speed=19.2x    frame=17160 fps=462 q=-0.0 size=N/A time=00:11:55.71 bitrate=N/A speed=19.3x    frame=17431 fps=463 q=-0.0 size=N/A time=00:12:07.01 bitrate=N/A speed=19.3x    frame=17687 fps=464 q=-0.0 size=N/A time=00:12:17.69 bitrate=N/A speed=19.3x    frame=17962 fps=464 q=-0.0 size=N/A time=00:12:29.16 bitrate=N/A speed=19.4x    frame=18198 fps=465 q=-0.0 size=N/A time=00:12:39.00 bitrate=N/A speed=19.4x    frame=18453 fps=465 q=-0.0 size=N/A time=00:12:49.64 bitrate=N/A speed=19.4x    frame=18718 fps=466 q=-0.0 size=N/A time=00:13:00.69 bitrate=N/A speed=19.4x    frame=18965 fps=466 q=-0.0 size=N/A time=00:13:10.99 bitrate=N/A speed=19.4x    frame=19233 fps=466 q=-0.0 size=N/A time=00:13:22.17 bitrate=N/A speed=19.5x    frame=19514 fps=467 q=-0.0 size=N/A time=00:13:33.89 bitrate=N/A speed=19.5x    frame=19789 fps=468 q=-0.0 size=N/A time=00:13:45.36 bitrate=N/A speed=19.5x    frame=20035 fps=468 q=-0.0 size=N/A time=00:13:55.62 bitrate=N/A speed=19.5x    frame=20295 fps=469 q=-0.0 size=N/A time=00:14:06.47 bitrate=N/A speed=19.5x    frame=20561 fps=469 q=-0.0 size=N/A time=00:14:17.56 bitrate=N/A speed=19.6x    frame=20847 fps=470 q=-0.0 size=N/A time=00:14:29.49 bitrate=N/A speed=19.6x    frame=21099 fps=470 q=-0.0 size=N/A time=00:14:40.00 bitrate=N/A speed=19.6x    frame=21376 fps=471 q=-0.0 size=N/A time=00:14:51.55 bitrate=N/A speed=19.6x    frame=21631 fps=471 q=-0.0 size=N/A time=00:15:02.19 bitrate=N/A speed=19.7x    frame=21890 fps=472 q=-0.0 size=N/A time=00:15:12.99 bitrate=N/A speed=19.7x    frame=22150 fps=472 q=-0.0 size=N/A time=00:15:23.83 bitrate=N/A speed=19.7x    frame=22409 fps=472 q=-0.0 size=N/A time=00:15:34.64 bitrate=N/A speed=19.7x    frame=22682 fps=473 q=-0.0 size=N/A time=00:15:46.02 bitrate=N/A speed=19.7x    frame=22928 fps=473 q=-0.0 size=N/A time=00:15:56.28 bitrate=N/A speed=19.7x    frame=23197 fps=474 q=-0.0 size=N/A time=00:16:07.50 bitrate=N/A speed=19.8x    frame=23449 fps=474 q=-0.0 size=N/A time=00:16:18.01 bitrate=N/A speed=19.8x    frame=23695 fps=474 q=-0.0 size=N/A time=00:16:28.27 bitrate=N/A speed=19.8x    frame=23961 fps=474 q=-0.0 size=N/A time=00:16:39.37 bitrate=N/A speed=19.8x    frame=24212 fps=474 q=-0.0 size=N/A time=00:16:49.84 bitrate=N/A speed=19.8x    frame=24483 fps=475 q=-0.0 size=N/A time=00:17:01.14 bitrate=N/A speed=19.8x    frame=24743 fps=475 q=-0.0 size=N/A time=00:17:11.98 bitrate=N/A speed=19.8x    frame=24979 fps=475 q=-0.0 size=N/A time=00:17:21.83 bitrate=N/A speed=19.8x    frame=25242 fps=475 q=-0.0 size=N/A time=00:17:32.80 bitrate=N/A speed=19.8x    frame=25470 fps=475 q=-0.0 size=N/A time=00:17:42.31 bitrate=N/A speed=19.8x    frame=25685 fps=474 q=-0.0 size=N/A time=00:17:51.27 bitrate=N/A speed=19.8x    frame=25948 fps=475 q=-0.0 size=N/A time=00:18:02.24 bitrate=N/A speed=19.8x    frame=26186 fps=475 q=-0.0 size=N/A time=00:18:12.17 bitrate=N/A speed=19.8x    frame=26438 fps=475 q=-0.0 size=N/A time=00:18:22.68 bitrate=N/A speed=19.8x    frame=26711 fps=475 q=-0.0 size=N/A time=00:18:34.07 bitrate=N/A speed=19.8x    frame=26983 fps=476 q=-0.0 size=N/A time=00:18:45.41 bitrate=N/A speed=19.8x    frame=27242 fps=476 q=-0.0 size=N/A time=00:18:56.21 bitrate=N/A speed=19.9x    frame=27493 fps=476 q=-0.0 size=N/A time=00:19:06.68 bitrate=N/A speed=19.9x    frame=27777 fps=477 q=-0.0 size=N/A time=00:19:18.53 bitrate=N/A speed=19.9x    frame=28026 fps=477 q=-0.0 size=N/A time=00:19:28.91 bitrate=N/A speed=19.9x    frame=28292 fps=477 q=-0.0 size=N/A time=00:19:40.01 bitrate=N/A speed=19.9x    frame=28546 fps=477 q=-0.0 size=N/A time=00:19:50.60 bitrate=N/A speed=19.9x    frame=28779 fps=477 q=-0.0 size=N/A time=00:20:00.32 bitrate=N/A speed=19.9x    frame=29043 fps=477 q=-0.0 size=N/A time=00:20:11.33 bitrate=N/A speed=19.9x    frame=29296 fps=477 q=-0.0 size=N/A time=00:20:21.88 bitrate=N/A speed=19.9x    frame=29482 fps=477 q=-0.0 size=N/A time=00:20:29.64 bitrate=N/A speed=19.9x    frame=29687 fps=476 q=-0.0 size=N/A time=00:20:38.19 bitrate=N/A speed=19.8x    frame=29915 fps=476 q=-0.0 size=N/A time=00:20:47.70 bitrate=N/A speed=19.8x    frame=30159 fps=476 q=-0.0 size=N/A time=00:20:57.88 bitrate=N/A speed=19.8x    frame=30392 fps=475 q=-0.0 size=N/A time=00:21:07.59 bitrate=N/A speed=19.8x    frame=30592 fps=475 q=-0.0 size=N/A time=00:21:15.94 bitrate=N/A speed=19.8x    frame=30812 fps=474 q=-0.0 size=N/A time=00:21:25.11 bitrate=N/A speed=19.8x    frame=31037 fps=474 q=-0.0 size=N/A time=00:21:34.50 bitrate=N/A speed=19.8x    frame=31290 fps=474 q=-0.0 size=N/A time=00:21:45.05 bitrate=N/A speed=19.8x    frame=31514 fps=474 q=-0.0 size=N/A time=00:21:54.39 bitrate=N/A speed=19.8x    frame=31737 fps=474 q=-0.0 size=N/A time=00:22:03.69 bitrate=N/A speed=19.8x    frame=31959 fps=473 q=-0.0 size=N/A time=00:22:12.95 bitrate=N/A speed=19.7x    frame=32152 fps=472 q=-0.0 size=N/A time=00:22:21.00 bitrate=N/A speed=19.7x    frame=32384 fps=472 q=-0.0 size=N/A time=00:22:30.68 bitrate=N/A speed=19.7x    frame=32580 fps=472 q=-0.0 size=N/A time=00:22:38.85 bitrate=N/A speed=19.7x    frame=32763 fps=471 q=-0.0 size=N/A time=00:22:46.49 bitrate=N/A speed=19.6x    frame=32984 fps=470 q=-0.0 size=N/A time=00:22:55.70 bitrate=N/A speed=19.6x    frame=33222 fps=470 q=-0.0 size=N/A time=00:23:05.63 bitrate=N/A speed=19.6x    frame=33403 fps=469 q=-0.0 size=N/A time=00:23:13.18 bitrate=N/A speed=19.6x    frame=33649 fps=469 q=-0.0 size=N/A time=00:23:23.44 bitrate=N/A speed=19.6x    frame=33880 fps=469 q=-0.0 size=N/A time=00:23:33.07 bitrate=N/A speed=19.6x    frame=34153 fps=470 q=-0.0 size=N/A time=00:23:44.46 bitrate=N/A speed=19.6x    [Parsed_psnr_10 @ 000001b7489dad40] PSNR y:48.686000 u:48.448524 v:49.051562 average:48.703788 min:40.134581 max:inf
[out#0/null @ 000001b748c91440] video:14697KiB audio:267500KiB subtitle:0KiB other streams:0KiB global headers:0KiB muxing overhead: unknown
frame=34203 fps=470 q=-0.0 Lsize=N/A time=00:23:46.55 bitrate=N/A speed=19.6x    
